<?xml version="1.0" standalone="no"?>
<!DOCTYPE svg PUBLIC "-//W3C//DTD SVG 20010904//EN"
 "http://www.w3.org/TR/2001/REC-SVG-20010904/DTD/svg10.dtd">
<svg version="1.0" xmlns="http://www.w3.org/2000/svg"
 width="50.000000pt" height="50.000000pt" viewBox="0 0 50.000000 50.000000"
 preserveAspectRatio="xMidYMid meet">
<metadata>
Created by potrace 1.10, written by Peter Selinger 2001-2011
</metadata>
<g transform="translate(0.000000,50.000000) scale(0.100000,-0.100000)"
fill="#000000" stroke="none">
<path d="M335 361 l-60 -27 -58 18 c-71 22 -101 23 -116 4 -10 -12 -5 -19 28
-38 23 -13 41 -26 41 -29 0 -3 -17 -13 -39 -21 -35 -14 -40 -14 -62 3 -26 20
-54 24 -64 9 -3 -5 4 -32 16 -60 28 -66 50 -72 147 -38 73 25 74 25 68 4 -3
-11 -9 -45 -12 -73 -6 -44 -4 -53 9 -53 23 0 50 39 88 126 33 75 35 77 101
110 78 39 86 49 62 75 -24 27 -76 23 -149 -10z m134 0 c10 -6 -7 -19 -59 -47
-73 -39 -73 -39 -110 -122 -35 -77 -60 -119 -60 -97 1 6 7 39 15 75 8 36 14
68 15 73 0 4 -17 -1 -38 -12 -51 -26 -146 -53 -163 -46 -13 5 -53 85 -42 85 3
0 18 -10 35 -21 l29 -21 157 70 c154 69 193 80 221 63z m-274 -23 c49 -13 56
-23 23 -31 -13 -4 -37 3 -62 18 -45 27 -32 32 39 13z"/>
</g>
</svg>
